<?xml version="1.0" encoding="UTF-8"?>
<svg id="Layer_1" xmlns="http://www.w3.org/2000/svg" version="1.1" viewBox="0 0 316 316">
  <!-- Generator: Adobe Illustrator 29.0.1, SVG Export Plug-In . SVG Version: 2.1.0 Build 192)  -->
  <defs>
    <style>
      .st0 {
        fill: #fff;
      }

      .st1 {
        fill: #d10214;
      }
    </style>
  </defs>
  <path class="st1" d="M2.4,287.5h311.5V38.3H2.4v249.2Z"/>
  <path class="st0" d="M279.3,126.8c-9.6,0-17.3,7.8-17.3,17.3s7.8,17.3,17.3,17.3,17.3-7.8,17.3-17.3-7.8-17.3-17.3-17.3M259.2,169.5c.2.6-.4,1-1.5,1.9l-.7.4.3.5c.1.3-.1.7-.6.9l-1,.5c-.5.2-1,.2-1.1-.1l-.2-.4-1.3.6.2.4c.1.3-.1.7-.6.9l-1,.5c-.5.2-1,.1-1.2-.1l-.2-.4c-4,1.9-8.5,3.8-13.1,6l.3.6c.1.3-.1.7-.6.9l-1,.5c-.5.2-1,.1-1.1-.1l-.3-.6-1.5.7.3.6c.1.3-.1.8-.6,1l-1,.5c-.5.2-1,.2-1.1-.1l-.3-.6c-2.1.9-4.4,1.2-6-1.9-.7-1.4-.8-4.7-1.3-6.5-.3-.9-1.4-1.1-1.4-1.1-20.3-3.9-27.2.4-40.2-2.8-4.1-1-6.3-4.8-11.3-4.8-11-.3-14.2-.2-26.2-.6-.5,1.8-.6,2.1-.6,2.1l-41.9-.2,6.4,3.2,2.1,18.5s-1.7.5-2.2.6c.4,3.7.8,8.7,1,13.1.2,4,.4,8.2.4,10.9,0,.8,0,2.8-1.2,5-.8,1.4-2.1,2.6-3.2,3.4-.4.3-2,1.4-3.8,2.5-1.9,1.1-4.1,2.3-5.3,2.8.1.5.5,1,.6,1.4-25.5,12.3-57,16.5-67.2,36.1-1.2,2.3-5.4,1.1-5.5-1.4,0-1.1,0-2.9,0-3.9h-.4c-.3,0-.6-.5-.5-1v-1.2c0-.5.4-.9.7-.9h.4c.1-1.1.4-2.2.6-3.3h-.4c-.3-.3-.4-.8-.2-1.3l.4-1.1c.2-.5.6-.8.9-.7h.4c1.8-4.1,5.3-6,6.9-10h-.3c-.3-.2-.4-.7-.3-1.2l.4-1.1c.2-.5.6-.8.9-.7h.3c.3-.5.5-1.1.9-1.8l-.4-.3c-.3-.2-.3-.7,0-1.1l.6-1c.3-.4.8-.6,1-.5h.1c0,0,.2.1.2.1,0,0,.1,0,.2,0,.2-.2.4-.4.5-.5,1.7-1.3,3.7-1.1,5.4,0,1.6,1,7.8,4.5,13.8-.9,9.9-8.9,21.5-21,30.3-21.4-2.4-5.1-6.5-15.8-6.9-19.8l-2.9-.6c-1.5-3.3-5.3-18.5-6.3-29.9,0,0-1.2-12.3,0-16.6-.7,0-1.9.9-2.3.9-1.6-3.9,3.6-37,8.7-46.7l7.9-3.1c-.8-.1-6.5-.4-21.5-1.6-8.3,7.4-18,15.4-22.9,19.7-.8.6-2.2,5.3-2.2,5.3,0,0-2.5,2.2-4.7,3.8-3.1,2.2-10.5,3.8-12.1,1.3-.4-.6-.3-.9,0-1.3,1.2-1.2,5.5-3.3,6.9-6-2.3,1.2-5,2.4-7.1,2.2-.9,0-1.3-2.3-.2-2.7,3.1-1.3,5.6-1.9,7.5-4.5,1.8-2.5,4-4.2,6.8-4.2,0,0,13.9-18.2,22.1-26.8,2.3-2.4,6.5-1.6,6.5-1.6l.7-2.8s28.1-3.3,41.2,1c-.3-8,3.3-18.5,15.7-18.5s15.8,5.6,17.1,12.5c.4,2.1-.8,3.5-1.5,6.2-1.1,4.1.4,8.5,0,9.9-.4,1.2-1.7,1.1-2.8,2.7-1.2,1.7-2.6,4.9-2.6,4.9l-1.7,3.8-8.8-.6c-3.2,6.9-9.8,21-12.1,35,6.9.6,38.1,5.1,38.1,5.1l.8,2.6s13.2,1.6,23.9,6.7c2.4.6,8.5-.3,12.4,1.5.3-.2.9-.8,1.2-1,14,4.3,25.6,11.7,39.2,14.9,0,0,6.3,1.5,8.5,2,5,1,8.2,1.2,10.8,1.4,4.4.3,6.8.3,9.9.4,2.2.1,5-.2,5.9,3.1"/>
</svg>