<?xml version="1.0" encoding="UTF-8"?>
<svg id="Layer_1" xmlns="http://www.w3.org/2000/svg" version="1.1" xmlns:xlink="http://www.w3.org/1999/xlink" viewBox="0 0 130 46">
  <!-- Generator: Adobe Illustrator 29.0.1, SVG Export Plug-In . SVG Version: 2.1.0 Build 192)  -->
  <defs>
    <style>
      .st0 {
        fill: #fff;
      }

      .st1 {
        fill: #a9a9a9;
      }

      .st2 {
        fill: #bcbcbc;
      }

      .st3 {
        clip-path: url(#clippath);
      }
    </style>
    <clipPath id="clippath">
      <path class="st0" d="M91.3,18.4c0,3.3,3,5.2,5.2,6.3,2.3,1.1,3.1,1.8,3.1,2.9,0,1.5-1.8,2.2-3.6,2.3-3,0-4.7-.8-6.1-1.5l-1,5.1c1.4.7,3.9,1.1,6.7,1.3,6.2,0,10.3-3.1,10.3-7.9s-8.4-6.4-8.4-9.2.8-1.7,2.5-2c.8,0,3.2-.2,5.9,1l1-4.9c-1.4-.6-3.3-1-5.6-1-5.9,0-10,3.1-10.1,7.6M117,11.2c-1.1,0-2.1.7-2.5,1.7l-9,21.4h6.2l1.3-3.4h7.7l.7,3.4h5.5l-4.8-23.1h-5.1M117.9,17.4l1.8,8.6h-4.9l3.1-8.6M83.7,11.2l-4.9,23.1h6l4.9-23.1h-6M74.9,11.2l-6.2,15.7-2.5-13.3c-.3-1.5-1.5-2.3-2.8-2.3h-10.1v.7c2,.5,4.2,1.1,5.7,2,.9.5,1.1.9,1.4,2.1l4.7,18.4h6.3l9.6-23.1h-6.2,0Z"/>
    </clipPath>
  </defs>
  <g id="Layer_11" data-name="Layer_1">
    <g>
      <g>
        <path id="rect887" class="st1" d="M17.9,13.7h11.3v18.5h-11.3V13.7Z"/>
        <path id="path889" class="st2" d="M19,22.9c0-3.6,1.6-7,4.5-9.2-5.1-4-12.5-3.1-16.4,2-4,5.1-3.1,12.5,2,16.4,4.2,3.3,10.2,3.3,14.5,0-2.9-2.2-4.5-5.6-4.5-9.2h0Z"/>
        <path id="path893" class="st0" d="M42.4,22.9c0,6.4-5.3,11.7-11.7,11.7s-5.2-.9-7.2-2.5c5.1-4,6-11.4,2-16.4-.6-.7-1.3-1.4-2-2,5.1-4,12.5-3.1,16.4,2,1.6,2.1,2.5,4.6,2.5,7.2h0Z"/>
      </g>
      <g>
        <path class="st0" d="M91.3,18.4c0,3.3,3,5.2,5.2,6.3,2.3,1.1,3.1,1.8,3.1,2.9,0,1.5-1.8,2.2-3.6,2.3-3,0-4.7-.8-6.1-1.5l-1,5.1c1.4.7,3.9,1.1,6.7,1.3,6.2,0,10.3-3.1,10.3-7.9s-8.4-6.4-8.4-9.2.8-1.7,2.5-2c.8,0,3.2-.2,5.9,1l1-4.9c-1.4-.6-3.3-1-5.6-1-5.9,0-10,3.1-10.1,7.6M117,11.2c-1.1,0-2.1.7-2.5,1.7l-9,21.4h6.2l1.3-3.4h7.7l.7,3.4h5.5l-4.8-23.1h-5.1M117.9,17.4l1.8,8.6h-4.9l3.1-8.6M83.7,11.2l-4.9,23.1h6l4.9-23.1h-6M74.9,11.2l-6.2,15.7-2.5-13.3c-.3-1.5-1.5-2.3-2.8-2.3h-10.1v.7c2,.5,4.2,1.1,5.7,2,.9.5,1.1.9,1.4,2.1l4.7,18.4h6.3l9.6-23.1h-6.2,0Z"/>
        <g class="st3">
          <path class="st0" d="M45.5,13.6L118.2-13.1l16.5,44.9-72.7,26.8"/>
        </g>
      </g>
    </g>
  </g>
</svg>