<?xml version="1.0" encoding="UTF-8"?>
<svg id="Layer_1" xmlns="http://www.w3.org/2000/svg" version="1.1" viewBox="0 0 130 46">
  <!-- Generator: Adobe Illustrator 29.0.1, SVG Export Plug-In . SVG Version: 2.1.0 Build 192)  -->
  <defs>
    <style>
      .st0 {
        fill: #fff;
      }
    </style>
  </defs>
  <g id="Layer_11" data-name="Layer_1">
    <g>
      <g>
        <path class="st0" d="M34,13.4c.4,0,1.2-.2,2-.2s1.6,0,2,.4c.4.3.6.8.5,1.4s-.6,1.3-1.5,1.6h0c.7.2,1.3.8,1.1,1.8s-.5,1.1-1,1.5c-.6.4-1.5.7-2.8.7s-1.3,0-1.6,0l1.3-7.1h0ZM34.8,16.2h.7c1,0,1.5-.4,1.6-1s-.3-1-1.2-1-.6,0-.8,0l-.3,2ZM34.2,19.5h.7c.9,0,1.6-.3,1.8-1.2s-.5-1.2-1.5-1.2h-.7l-.4,2.3h0Z"/>
        <path class="st0" d="M40.7,18.5l-1,2.1h-1.4l3.6-7.3h1.6l1,7.3h-1.4l-.3-2.1h-2.3ZM42.9,17.5l-.3-1.8c0-.4,0-1,0-1.4h0c-.2.4-.3,1-.6,1.4l-.9,1.8h1.8Z"/>
        <path class="st0" d="M45.7,20.5l1.3-7.3h1.5l1.3,3.1c.3.8.6,1.6.8,2.4h0c0-1,.3-1.9.4-3l.4-2.5h1.2l-1.3,7.3h-1.4l-1.3-3.2c-.3-.8-.6-1.6-.9-2.5h0c0,1-.3,1.9-.5,3.1l-.4,2.6h-1.2,0Z"/>
        <path class="st0" d="M54.3,13.3h1.3l-.6,3.3h0c.3-.3.4-.5.7-.8l2.3-2.5h1.6l-3,3.1,1.9,4.2h-1.6l-1.5-3.3-.8.8-.4,2.5h-1.3s1.3-7.3,1.3-7.3Z"/>
        <path class="st0" d="M10.8,27.3h-2.1l.2-1.1h5.5l-.2,1.1h-2.1l-1,6.2h-1.3s1-6.2,1-6.2Z"/>
        <path class="st0" d="M15.2,26.3c.5,0,1.3-.2,2-.2s1.7.2,2.2.6.4.9.3,1.5c-.2,1-1,1.6-1.6,1.8h0c.5.3.7.7.8,1.5,0,.9,0,1.7.2,2h-1.4c0-.2-.2-.8-.2-1.7s-.3-1.2-1-1.3h-.7l-.5,2.9h-1.3l1.3-7.2h0ZM16,29.5h.8c.9,0,1.6-.4,1.6-1.2s-.3-1.1-1.2-1.1h-.9l-.4,2.3h0Z"/>
        <path class="st0" d="M21.9,31.4l-1,2.1h-1.4l3.6-7.3h1.6l1,7.3h-1.4l-.3-2.1h-2.3ZM24.2,30.4l-.3-1.8c0-.4,0-1,0-1.4h0c-.2.4-.3,1-.6,1.4l-.9,1.8h1.8Z"/>
        <path class="st0" d="M27,33.4l1.3-7.3h1.5l1.3,3.1c.3.8.6,1.6.8,2.4h0c0-1,.3-1.9.4-3l.4-2.5h1.2l-1.3,7.3h-1.4l-1.3-3.2c-.3-.8-.6-1.6-.9-2.5h0c0,1-.3,1.9-.5,3.1l-.4,2.6h-1.2,0Z"/>
        <path class="st0" d="M34.5,32c.3.3,1,.4,1.6.4s1.4-.4,1.5-1-.2-.9-1-1.2c-1.1-.4-1.7-1-1.6-2.1s1.4-2.1,2.9-2.1,1.3.2,1.6.3l-.5,1c-.3-.2-.7-.3-1.4-.3s-1.3.4-1.4.9.3.8,1.2,1.2c1.2.4,1.6,1.1,1.5,2.2s-1.3,2.2-3.1,2.2-1.6-.2-1.9-.4c0,0,.5-1.1.5-1.1Z"/>
        <path class="st0" d="M41.1,26.2h4.2l-.2,1.1h-2.9l-.3,2h2.7l-.2,1.1h-2.7l-.5,3h-1.3l1.3-7.3h0Z"/>
        <path class="st0" d="M49.9,30.2h-2.8l-.3,2.2h3l-.2,1.1h-4.4l1.3-7.3h4.2l-.2,1.1h-2.9l-.3,1.9h2.8l-.2,1h0Z"/>
        <path class="st0" d="M52.1,26.3c.5,0,1.3-.2,2-.2s1.7.2,2.2.6c.3.3.4.9.3,1.5-.2,1-1,1.6-1.6,1.8h0c.5.3.7.7.8,1.5,0,.9,0,1.7.2,2h-1.4c0-.2-.2-.8-.2-1.7s-.3-1.2-1-1.3h-.7l-.5,2.9h-1.3l1.3-7.2h0ZM52.9,29.5h.8c.9,0,1.6-.4,1.6-1.2.2-.8-.3-1.1-1.2-1.1h-.9l-.4,2.3h0Z"/>
      </g>
      <g>
        <path class="st0" d="M77.6,25.3h-8.6l-.8,4.4h9.6l-1,5.3h-16l4.2-23.9h15.5l-1,5.2h-9.1l-.7,3.9h8.6l-1,5.2h0Z"/>
        <path class="st0" d="M84.7,11.1h15.3l-1,5.2h-8.9l-.8,4.4h8.4l-1,5.2h-8.4l-1.6,9.1h-6.4s4.2-23.9,4.2-23.9Z"/>
        <path class="st0" d="M107.7,16.4h-6.1l1-5.4h18.7l-1,5.4h-6.2l-3.3,18.5h-6.4s3.3-18.5,3.3-18.5Z"/>
      </g>
    </g>
  </g>
</svg>