<?xml version="1.0" encoding="UTF-8"?>
<svg id="Layer_1" xmlns="http://www.w3.org/2000/svg" version="1.1" viewBox="0 0 130 46">
  <!-- Generator: Adobe Illustrator 29.0.1, SVG Export Plug-In . SVG Version: 2.1.0 Build 192)  -->
  <defs>
    <style>
      .st0, .st1 {
        fill: #fff;
      }

      .st1 {
        fill-rule: evenodd;
      }
    </style>
  </defs>
  <g id="Layer_11" data-name="Layer_1">
    <g>
      <path class="st1" d="M88.4,28.7h3.9v-10.6c0-1.9,1.5-3.4,3.4-3.4h.7c.5,0,1,0,1.4.3l1.7-3.5c-1-.5-2-.7-3.1-.7h-.7c-4,0-7.1,3.2-7.1,7.1v10.6h0Z"/>
      <path class="st0" d="M25,10.8h-2.1c-4,0-7.1,3.2-7.1,7.1v16.7h3.9v-6.1c.9.4,1.9.7,3,.7h2.1c4.1,0,7.4-3.4,7.4-7.4v-3.9c0-4-3.2-7.1-7.1-7.1h0ZM28.3,21.8c0,2-1.7,3.6-3.6,3.6h-2.1c-1.7,0-3-1.3-3-3v-4.5c0-1.9,1.5-3.4,3.4-3.4h2.1c1.9,0,3.4,1.5,3.4,3.4v3.8h-.2Z"/>
      <path class="st0" d="M19.7,34.7h0Z"/>
      <path class="st1" d="M43.8,10.8h-3.2c-3,0-5.6,2-6,4.6l3.8.9c0-.9,1.1-1.7,2.3-1.7h3.2c1.2,0,2.3.8,2.3,1.7s0,.9-.3,1.1c-.7.7-2.8.6-4.4.6h-1c-2.4,0-3.9.9-4.7,1.7-1.1,1-1.7,2.5-1.7,4s.6,2.8,1.6,3.9c.8.8,2.1,1.7,4.3,1.7h3.9c3.4,0,6.1-2.5,6.1-5.6v-7.2c0-3.1-2.8-5.6-6-5.6h0ZM45.9,23.6c0,1-1,1.7-2.3,1.7h-3.9c-1.6,0-2.1-.9-2.1-1.7s.2-.8.5-1.2c.5-.4,1.2-.7,2.1-.7h.9c1.6,0,3.3,0,4.7-.4v2.2h0Z"/>
      <path class="st0" d="M61.3,10.8h-2.1c-4,0-7.1,3.2-7.1,7.1v16.7h3.9v-6.1c.9.4,1.9.7,3,.7h2.1c4.1,0,7.4-3.4,7.4-7.4v-3.9c0-4-3.2-7.1-7.1-7.1h0ZM64.7,21.8c0,2-1.7,3.6-3.6,3.6h-2.1c-1.7,0-3-1.3-3-3v-4.5c0-1.9,1.5-3.4,3.4-3.4h2.1c1.9,0,3.4,1.5,3.4,3.4v3.8h-.2Z"/>
      <path class="st0" d="M56,34.7h0Z"/>
      <path class="st1" d="M80,10.8h-3.2c-3,0-5.6,2-6,4.6l3.9.9c0-.9,1.1-1.7,2.3-1.7h3.2c1.2,0,2.3.8,2.3,1.7s0,.9-.3,1.1c-.7.7-2.8.6-4.4.6h-1c-2.4,0-3.9.9-4.7,1.7-1.1,1-1.7,2.5-1.7,4s.6,2.8,1.6,3.9c.8.8,2.2,1.7,4.4,1.7h3.9c3.4,0,6.1-2.5,6.1-5.6v-7.1c0-3.1-2.9-5.6-6.2-5.6h0ZM82.2,23.6c0,1-1,1.7-2.3,1.7h-3.9c-1.6,0-2.1-.9-2.1-1.7s.2-.8.5-1.2c.5-.4,1.2-.7,2.1-.7h.9c1.6,0,3.3,0,4.7-.4v2.2h0Z"/>
      <path class="st1" d="M109.2,10.8h-3.2c-3,0-5.6,2-6,4.6l3.9.9c0-.9,1.1-1.7,2.3-1.7h3.2c1.2,0,2.3.8,2.3,1.7s0,.9-.3,1.1c-.7.7-2.8.6-4.4.6h-1c-2.4,0-3.9.9-4.7,1.7-1.1,1-1.7,2.5-1.7,4s.6,2.8,1.6,3.9c.8.8,2.2,1.7,4.4,1.7h3.9c3.4,0,6.1-2.5,6.1-5.6v-7.1c0-3.1-2.8-5.6-6.2-5.6h0ZM111.6,23.6c0,1-1,1.7-2.3,1.7h-3.9c-1.6,0-2.1-.9-2.1-1.7s.2-.8.5-1.2c.5-.4,1.2-.7,2.1-.7h.9c1.6,0,3.3,0,4.7-.4v2.2h0Z"/>
    </g>
  </g>
</svg>