<?xml version="1.0" encoding="UTF-8"?>
<svg id="Layer_1" xmlns="http://www.w3.org/2000/svg" version="1.1" xmlns:xlink="http://www.w3.org/1999/xlink" viewBox="0 0 130 46">
  <!-- Generator: Adobe Illustrator 29.0.1, SVG Export Plug-In . SVG Version: 2.1.0 Build 192)  -->
  <defs>
    <style>
      .st0 {
        fill: #fff;
      }

      .st1 {
        fill: #a6a6a6;
      }

      .st2 {
        fill: none;
      }

      .st3 {
        clip-path: url(#clippath);
      }
    </style>
    <clipPath id="clippath">
      <rect class="st2" x="20.4" y="9.1" width="8" height="32.3"/>
    </clipPath>
  </defs>
  <g id="Layer_11">
    <g id="Layer_12">
      <g id="katman_2-2">
        <g id="payfix">
          <g id="Group_22321">
            <g id="Group_22318">
              <path id="Path_22178" class="st0" d="M17.4,23.2v-13c0-.5.1-.7.7-.7h9.7c2.5,0,4.9,1,6.6,2.9,2.3,2.6,2.9,5.7,1.9,9.1-.7,2.3-2.3,4.1-4.4,5.1-1.2.7-2.7,1-4.2,1h-4.5q-.7,0-.7.7v7.8c0,.4,0,.5-.4.5h-4c-.6,0-.7-.2-.7-.7v-12.9h0v.2ZM22.6,18.7h0v3.6c0,.5.1.7.7.7h4.2c1.6,0,3.1-.9,3.7-2.3,1.1-2,.3-4.6-1.8-5.7-.6-.3-1.2-.4-1.8-.4h-4.2c-.5,0-.7.2-.7.7v3.6h0v-.2Z"/>
              <path id="Path_22179" class="st0" d="M44.7,32.1h-2.9s-.3-.2-.3-.4v-15.8c0-.5,0-.7.7-.7h6.1c2.3.1,4.3,1.7,5,4,.5,2.3,0,4.4-1.8,6-1,.8-2.2,1.3-3.4,1.3h-2.7c-.5,0-.7.1-.7.7v4.9h0ZM44.7,20.8h0v2.1c0,.4,0,.6.5.5h2.4c1,0,2-.4,2.4-1.4.7-1.3.2-2.9-1.1-3.6-.3-.1-.6-.2-.9-.3h-2.9c-1,0-.4.1-.4.5v2.2h0Z"/>
              <path id="Path_22180" class="st0" d="M67.2,32.1h-2.7s-.2-.2-.2-.3v-.6c0-.1,0-.2,0-.4,0,0-.3,0-.4.1-1.5,1.5-3.3,1.7-5.2,1.2-3.1-.8-4.5-3.9-4.2-6.9,0-1.5.8-2.9,1.8-4,1.9-2,5-2.2,7.2-.6.2.2.4.4.7.5,0-.3,0-.6,0-.9,0-.1.2-.4.4-.4h2.2c.3,0,.4,0,.4.4v11.6h0v.3ZM60.7,29.6c2,.2,3.6-2,3.5-3.5,0-1.9-1.5-3.5-3.4-3.5s-3.5,1.5-3.5,3.4h0c0,1.6,1.5,3.8,3.4,3.6h0Z"/>
              <path id="Path_22181" class="st0" d="M83.1,23.6v-7.6c0-.6,0-.7.7-.7h8.7c.4,0,.6.1.6.6v1.8c0,.4,0,.6-.7.6h-5.4c-1.8,0-.7,0-.7.7v2.9c0,.4,0,.7.6.7h5.1c.8,0,.9,0,.9.9v1.6c0,.4,0,.6-.5.6h-5.4c-.4,0-.6.1-.6.6v5.3c0,.4,0,.6-.6.6h-1.9c-.5,0-.7,0-.7-.7v-7.8h0Z"/>
              <path id="Path_22182" class="st0" d="M81.2,20.2c-1.1,2.9-2.1,5.8-3.2,8.6-.5,1.3-.9,2.7-1.5,4-.8,1.9-2,3.5-4.2,4h-1.8v-2.3c0,0,.2-.3.4-.4,1.2,0,2.3-1,2.6-2.1v-.7c-.4-1.1-1-2.3-1.5-3.4-.7-1.5-1.2-3-1.8-4.5-.4-1.1-1-2.3-1.5-3.5h2.2c.7,0,1.2.3,1.5,1,.9,2.1,1.7,4.3,2.5,6.4,0,.2.2.4.4.8,0-.3.2-.4.3-.7.8-2.4,1.6-4.8,2.4-7.2,0-.1.2-.3.4-.3h2.8v.3Z"/>
              <path id="Path_22183" class="st0" d="M100.4,32.1c.6-.8,1.1-1.5,1.5-2.2.9-1.2,1.7-2.3,2.6-3.5.2-.2,0-.5,0-.7-1.1-1.5-2.1-3.1-3.2-4.6-.2-.3-.4-.5-.7-.9h3.3c0,0,.3.1.4.3.7.9,1.2,1.7,1.9,2.6q.4.5.9,0c.6-.8,1.2-1.6,1.8-2.4.2-.3.5-.5.9-.4h2.8c-.4.6-.7,1.1-1.1,1.6-1,1.3-2,2.6-2.9,4,0,.1,0,.5,0,.7,1.2,1.8,2.5,3.4,3.7,5.2,0,0,0,.2.3.4h-1.8c-1.1.2-2.2-.3-2.6-1.3-.4-.7-.9-1.3-1.3-1.9-.2-.3-.4-.4-.7,0-.7,1-1.4,2-2.1,2.9,0,0-.2.2-.4.3h-3.4Z"/>
              <path id="Path_22184" class="st0" d="M95.6,26.1v-5.4c0-.5,0-.7.6-.6h1.9c.6,0,.5,0,.5.5v10.8c0,.6,0,.8-.7.7h-1.7c-.4,0-.7,0-.7-.6v-5.4h0Z"/>
              <path id="Path_22185" class="st0" d="M99,16.6c0,1-.7,1.8-1.7,1.8h0c-1,0-1.8-.7-1.9-1.6v-.2c0-1,.8-1.8,1.8-1.9,1,0,1.8.9,1.9,1.8h0Z"/>
            </g>
            <g class="st3">
              <g id="Group_22320">
                <g id="Group_22319">
                  <path id="Path_22186" class="st1" d="M18.6,23.1v-12.9c0-.5.1-.7.7-.7h9.7c2.5,0,4.9,1,6.6,2.9,2.3,2.6,2.9,5.7,1.9,9.1-.7,2.3-2.3,4.1-4.4,5.1-1.2.7-2.7,1-4.2,1h-4.5q-.7,0-.7.7v7.8c0,.4,0,.5-.4.5h-4c-.6,0-.7-.2-.7-.7v-12.9h0ZM23.7,18.6h0v3.6c0,.5.1.7.7.7h4.2c1.6,0,3.1-.9,3.7-2.3,1.1-2,.3-4.6-1.8-5.7-.6-.3-1.2-.4-1.8-.4h-4.2c-.5,0-.7.2-.7.7v3.6h0v-.2Z"/>
                  <path id="Path_22187" class="st1" d="M45.8,32.1h-2.9s-.3-.2-.3-.4v-15.8c0-.5,0-.7.7-.7h6.1c2.3.1,4.3,1.7,5,4,.5,2.3,0,4.4-1.8,6-1,.8-2.2,1.3-3.4,1.3h-2.7c-.5,0-.7.1-.7.7v4.9h0ZM45.9,20.8h0v2.1c0,.4,0,.6.5.5h2.4c1,0,2-.4,2.4-1.4.7-1.3.2-2.9-1.1-3.6-.3-.1-.6-.2-.9-.3h-2.9c-1,0-.4.1-.4.5v2.2h0Z"/>
                  <path id="Path_22188" class="st1" d="M68.4,32h-2.7s-.2-.2-.2-.3v-.6c0-.1,0-.2,0-.4,0,0-.3,0-.4.1-1.5,1.5-3.3,1.7-5.2,1.2-3.1-.8-4.5-3.9-4.2-6.9,0-1.5.8-2.9,1.8-4,1.9-2,5-2.2,7.2-.6.2.2.4.4.7.5,0-.3,0-.6,0-.9,0-.1.2-.4.4-.4h2.2c.3,0,.4,0,.4.4v11.6h0v.3ZM61.9,29.6c2,.2,3.6-2,3.5-3.5,0-1.9-1.5-3.5-3.4-3.5s-3.5,1.5-3.5,3.4h0c0,1.7,1.5,3.8,3.4,3.6h0Z"/>
                  <path id="Path_22189" class="st1" d="M84.3,23.6v-7.6c0-.6,0-.7.7-.7h8.7c.4,0,.6.1.6.6v1.8c0,.4,0,.6-.7.6h-5.4c-1.8,0-.7,0-.7.7v2.9c0,.4,0,.7.6.7h5.1c.8,0,.9,0,.9.9v1.6c0,.4,0,.6-.5.6h-5.4c-.4,0-.6.1-.6.6v5.3c0,.4,0,.6-.6.6h-1.9c-.5,0-.7,0-.7-.7v-7.8h0Z"/>
                  <path id="Path_22190" class="st1" d="M82.4,20.2c-1.1,2.9-2.1,5.8-3.2,8.6-.5,1.3-.9,2.7-1.5,4-.8,1.9-2,3.5-4.2,4h-1.8v-2.3c0,0,.2-.3.4-.4,1.2,0,2.3-1,2.6-2.1v-.7c-.4-1.1-1-2.3-1.5-3.4-.7-1.5-1.2-3-1.8-4.5-.4-1.1-1-2.3-1.5-3.5h2.2c.7,0,1.2.3,1.5,1,.9,2.1,1.7,4.3,2.5,6.4,0,.2.2.4.4.8,0-.3.2-.4.3-.7.8-2.4,1.6-4.8,2.4-7.2,0-.1.2-.3.4-.3h2.8v.3Z"/>
                  <path id="Path_22191" class="st1" d="M101.6,32c.6-.8,1.1-1.5,1.5-2.2.9-1.2,1.7-2.3,2.6-3.5.2-.2,0-.5,0-.7-1.1-1.5-2.1-3.1-3.2-4.6-.2-.3-.4-.5-.7-.9h3.3c0,0,.3.1.4.3.7.9,1.2,1.7,1.9,2.6q.4.5.9,0c.6-.8,1.2-1.6,1.8-2.4.2-.3.5-.5.9-.4h2.8c-.4.6-.7,1.1-1.1,1.6-1,1.3-2,2.6-2.9,4,0,.1,0,.5,0,.7,1.2,1.8,2.5,3.4,3.7,5.2,0,0,0,.2.3.4h-1.8c-1.1.2-2.2-.3-2.6-1.3-.4-.7-.9-1.3-1.3-1.9-.2-.3-.4-.4-.7,0-.7,1-1.4,2-2.1,2.9,0,.1-.2.2-.4.3h-3.4Z"/>
                  <path id="Path_22192" class="st1" d="M96.8,26.1v-5.4c0-.5,0-.7.6-.6h1.9c.6,0,.5,0,.5.5v10.8c0,.6,0,.8-.7.7h-1.7c-.4,0-.7,0-.7-.6v-5.4h0Z"/>
                  <path id="Path_22193" class="st1" d="M100.1,16.6c0,1-.7,1.8-1.7,1.8h0c-1,0-1.8-.7-1.9-1.6v-.2c0-1,.8-1.8,1.8-1.9,1,0,1.8.9,1.9,1.8h0Z"/>
                </g>
              </g>
            </g>
          </g>
        </g>
      </g>
    </g>
  </g>
</svg>